<svg version="1.1" xmlns="http://www.w3.org/2000/svg" xmlns:xlink="http://www.w3.org/1999/xlink" width="122.75" height="41.25" viewBox="0,0,122.75,41.25"><g transform="translate(-169.875,-134.625)"><g data-paper-data="{&quot;isPaintingLayer&quot;:true}" fill-rule="nonzero" stroke-linecap="butt" stroke-linejoin="miter" stroke-miterlimit="10" stroke-dasharray="" stroke-dashoffset="0" style="mix-blend-mode: normal"><text transform="translate(171.875,156.375) scale(0.5,0.5)" font-size="40" xml:space="preserve" fill="#000000" fill-rule="nonzero" stroke="none" stroke-width="1" stroke-linecap="butt" stroke-linejoin="miter" stroke-miterlimit="10" stroke-dasharray="" stroke-dashoffset="0" font-family="Sans Serif" font-weight="normal" text-anchor="start" style="mix-blend-mode: normal"><tspan x="0" dy="0">(&gt;_&lt;)      (^_^)</tspan></text><path d="M180.625,167.625c0,2.76143 -2.18261,5 -4.875,5c-2.69239,0 -4.875,-2.23857 -4.875,-5c0,-2.76143 2.18261,-5 4.875,-5c2.69239,0 4.875,2.23857 4.875,5z" fill="none" stroke="#000000" stroke-width="2"/><path d="M291.625,169.875c0,2.76143 -2.18261,5 -4.875,5c-2.69239,0 -4.875,-2.23857 -4.875,-5c0,-2.76143 2.18261,-5 4.875,-5c2.69239,0 4.875,2.23857 4.875,5z" fill="none" stroke="#000000" stroke-width="2"/><path d="M254.625,169.125c0,2.76143 -2.18261,5 -4.875,5c-2.69239,0 -4.875,-2.23857 -4.875,-5c0,-2.76143 2.18261,-5 4.875,-5c2.69239,0 4.875,2.23857 4.875,5z" fill="none" stroke="#000000" stroke-width="2"/><path d="M215.125,167.875c0,2.76143 -2.18261,5 -4.875,5c-2.69239,0 -4.875,-2.23857 -4.875,-5c0,-2.76143 2.18261,-5 4.875,-5c2.69239,0 4.875,2.23857 4.875,5z" fill="none" stroke="#000000" stroke-width="2"/></g></g></svg>